<?xml version="1.0" encoding="UTF-8" standalone="no"?>
<!-- Created with Inkscape (http://www.inkscape.org/) -->

<svg
   width="49.879036mm"
   height="11.019741mm"
   viewBox="0 0 49.879036 11.019741"
   version="1.1"
   id="svg1"
   xml:space="preserve"
   inkscape:version="1.4.2 (ebf0e940d0, 2025-05-08)"
   sodipodi:docname="disegno.svg"
   xmlns:inkscape="http://www.inkscape.org/namespaces/inkscape"
   xmlns:sodipodi="http://sodipodi.sourceforge.net/DTD/sodipodi-0.dtd"
   xmlns="http://www.w3.org/2000/svg"
   xmlns:svg="http://www.w3.org/2000/svg"><sodipodi:namedview
     id="namedview1"
     pagecolor="#ffffff"
     bordercolor="#000000"
     borderopacity="0.25"
     inkscape:showpageshadow="2"
     inkscape:pageopacity="0.0"
     inkscape:pagecheckerboard="0"
     inkscape:deskcolor="#d1d1d1"
     inkscape:document-units="mm"
     inkscape:zoom="1.0066252"
     inkscape:cx="333.29187"
     inkscape:cy="458.46259"
     inkscape:window-width="1920"
     inkscape:window-height="1008"
     inkscape:window-x="0"
     inkscape:window-y="0"
     inkscape:window-maximized="1"
     inkscape:current-layer="layer1"
     showguides="true"><sodipodi:guide
       position="-0.30310791,2.1966118"
       orientation="1,0"
       id="guide10"
       inkscape:locked="false" /><sodipodi:guide
       position="27.303605,-0.91613819"
       orientation="1,0"
       id="guide1"
       inkscape:locked="false" /><sodipodi:guide
       position="4.1364141,2.6318518"
       orientation="0,-1"
       id="guide2"
       inkscape:locked="false" /><inkscape:page
       x="0"
       y="0"
       width="49.879036"
       height="11.019741"
       id="page2"
       margin="0"
       bleed="0" /></sodipodi:namedview><defs
     id="defs1" /><g
     inkscape:label="Livello 1"
     inkscape:groupmode="layer"
     id="layer1"
     transform="translate(-91.523295,-142.92138)"><path
       style="fill:#999999;fill-opacity:1;stroke-width:0.498792"
       d="m 92.148587,153.72734 h 5.54559 v -1.77569 H 93.41154 v -8.79531 h -1.888245 v 8.79531 0.81573 z"
       id="path10" /><path
       id="path9"
       style="fill:#999999;fill-opacity:1;stroke-width:0.498792"
       d="m 102.11117,142.92138 c -1.78891,0.0192 -2.6726,0.90503 -3.098768,1.64482 -0.459335,0.7973 -0.508998,1.63767 -0.508998,1.96209 v 3.81535 c 0.01945,1.78408 0.907796,2.66498 1.649746,3.09019 0.79926,0.45789 1.64171,0.50729 1.96702,0.50729 h 0.59254 0.004 c 1.79006,-0.0198 2.67413,-0.90542 3.10069,-1.64503 0.45989,-0.79692 0.50943,-1.63766 0.50943,-1.96188 v -3.81513 c -0.0191,-1.78406 -0.90757,-2.66514 -1.64932,-3.0902 -0.79946,-0.45806 -1.64228,-0.5075 -1.96744,-0.5075 z m 0.009,1.70845 h 0.5904 c 0.70334,0 1.8861,0.24784 1.90361,1.89846 v 3.80592 c 0,0.70051 -0.24852,1.87796 -1.91153,1.89846 h -0.58248 c -0.70315,0 -1.8855,-0.24781 -1.90361,-1.89846 v -3.80592 c 0,-0.70126 0.24852,-1.88081 1.90361,-1.89846 z" /><path
       style="fill:#999999;fill-opacity:1;stroke-width:0.498792"
       d="m 112.16788,148.4473 -3.44529,-5.29092 h -2.11478 l 3.44529,5.29092 -3.44529,5.29091 h 2.11478 z"
       id="path7" /><path
       style="fill:#44aa00;fill-opacity:1;stroke-width:0.498792"
       d="m 112.64188,147.72003 2.97153,-4.56365 h -2.11456 l -1.91436,2.93979 z"
       id="path6" /><path
       style="fill:#44aa00;fill-opacity:1;stroke-width:0.498792"
       d="m 113.49885,153.73816 h 2.11456 l -2.97153,-4.56369 -1.05739,1.62388 z"
       id="path5" /><path
       id="path4"
       style="fill:#999999;fill-opacity:1;stroke-width:0.498792"
       d="m 119.50089,142.92138 c -1.78872,0.0192 -2.67255,0.90503 -3.09877,1.64482 -0.45908,0.7973 -0.50878,1.63767 -0.50878,1.96209 l 2.1e-4,3.81535 c 0.0192,1.78408 0.9075,2.66498 1.64911,3.09019 0.79965,0.45789 1.64212,0.50729 1.96722,0.50729 h 0.59255 0.005 c 1.78964,-0.0198 2.67389,-0.90542 3.10048,-1.64503 h -6.5e-4 c 0.45988,-0.79692 0.50965,-1.63766 0.50965,-1.96188 v -3.81513 c -0.0194,-1.78406 -0.90772,-2.66514 -1.64932,-3.0902 -0.79965,-0.45806 -1.64233,-0.5075 -1.96723,-0.5075 z m 0.009,1.70845 h 0.59083 c 0.70294,0 1.88568,0.24784 1.90339,1.89846 v 3.80592 c 0,0.70051 -0.24888,1.87796 -1.91174,1.89846 h -0.58248 c -0.70314,0 -1.88555,-0.24781 -1.90361,-1.89846 v -3.80592 c 0,-0.70126 0.24873,-1.88081 1.90361,-1.89846 z" /><path
       style="fill:#999999;fill-opacity:1;stroke-width:0.498792"
       d="m 133.1451,153.72056 h 0.21643 v -10.56418 h -1.72667 v 7.60805 l -3.88706,-7.60805 h -0.56649 -1.32193 -0.40472 v 10.56418 h 1.72665 v -7.97672 l 4.07531,7.97672 h 0.37824 z"
       id="path2" /><path
       style="fill:#999999;fill-opacity:1;stroke-width:0.498792"
       d="m 137.12015,151.95165 v -2.91703 h 2.75548 v -1.77572 h -2.75548 v -1.37802 l -0.62258,-0.95621 h 1.31755 3.58721 v -1.77572 h -6.1706 v 0.007 1.76833 7.02698 0.79921 l 0.63576,0.97648 h 5.53484 v -1.77569 z"
       id="path1" /></g></svg>
